<svg xmlns="http://www.w3.org/2000/svg" viewBox="0 0 1854.91 1822.47"><defs><style>.cls-1{fill:#fff;}.cls-1,.cls-2{fill-rule:evenodd;}.cls-2{fill:#2360a5;}</style></defs><title>gm_logo</title><g id="Layer_2" data-name="Layer 2"><g id="Layer_1-2" data-name="Layer 1"><path class="cls-1" d="M190.31,235H1704.94V1637.42H190.31Z"/><path class="cls-2" d="M0,1822.47H1854.91V0H0Zm949-1405H1099.8l89.44,482.37,85.09-481.49h153.49v707.76H1334V629.71L1233.1,1127.86h-84.17L1046.31,623.57l.88,509.56H948.06L949,417.47ZM431.49,749.86V595.51C431.49,561.31,421,392,613,390.29s191.19,141.2,191.19,141.2V637.62H700.74s16.67-142.08-79.8-145.6c-79.82-2.63-73.68,89.45-73.68,89.45V960.36s-6.15,89.45,73.68,89.45c90.33,0,79.8-92.95,79.8-92.95V821.79h-68.4V749H804.23v402.56h-79.8v-42.1l-6.15,16.65c-14,23.67-61.4,25.44-105.25,25.44-192.07-1.77-181.55-171-181.55-205.22V749.86Zm3.52,663V1247.15H1438.33V1412.9Z"/></g></g></svg>