<svg xmlns="http://www.w3.org/2000/svg" xmlns:xlink="http://www.w3.org/1999/xlink" viewBox="0 0 903.68 547.93"><defs><style>.cls-1{fill:none;}.cls-2{clip-path:url(#clip-path);}.cls-3{fill:#231f20;}.cls-4{fill:#0082ca;}.cls-5{fill:#f5333f;}</style><clipPath id="clip-path" transform="translate(0 0)"><rect class="cls-1" width="903.68" height="547.93"/></clipPath></defs><title>logistik_logo_normal</title><g id="Layer_2" data-name="Layer 2"><g id="Layer_1-2" data-name="Layer 1"><g class="cls-2"><g class="cls-2"><path class="cls-3" d="M876.9,323.81a13.39,13.39,0,1,1,13.39,13.33,13.27,13.27,0,0,1-13.39-13.33m24.73,0a11.34,11.34,0,1,0-11.34,11.28,11.36,11.36,0,0,0,11.34-11.28m-5,7.21h-2.46l-4.38-6.73h-2.46V331H885.3V316.43h6.36c2.63,0,5.19.72,5.19,3.86,0,2.87-2,3.93-4.61,4Zm-6.84-8.78c1.81,0,5,.34,5-2,0-1.5-2-1.78-3.55-1.78h-3.9v3.76Z" transform="translate(0 0)"/><polygon class="cls-3" points="0 289.06 28.97 289.06 28.97 427.54 115.63 427.54 115.63 453.91 0 453.91 0 289.06"/><path class="cls-3" d="M189.81,456.74c-37.91,0-65.94-29-65.94-64.53,0-35.8,28.26-65.24,66.41-65.24s66.18,29,66.18,64.77c0,35.56-28.26,65-66.65,65m0-104.8c-22.84,0-37.44,17.9-37.44,39.8,0,22.14,15.78,40.27,37.91,40.27,23.08,0,37.68-17.9,37.68-39.8,0-22.14-15.78-40.27-38.15-40.27" transform="translate(0 0)"/><path class="cls-3" d="M331.35,492.06c-20.49,0-39.57-5.18-55.58-14.83l10.6-21.43C299.55,464,313.69,469,330.64,469,356.07,469,370,455.8,370,430.83v-9.65C359.61,434.6,346.65,444,326.16,444c-29.2,0-56.52-21.43-56.52-58.41S297.2,327,326.16,327c21,0,33.92,9.66,43.57,21.2V329.56h28.5v98.92c0,44-24,63.58-66.88,63.58M333.7,351c-19.78,0-35.33,13.65-35.33,34.38S314.15,420,333.7,420c19.78,0,36.51-13.9,36.51-34.39,0-21-16.73-34.61-36.51-34.61" transform="translate(0 0)"/><path class="cls-3" d="M424.84,283.41h30.61v27.08H424.84ZM426,329.56h28.49V453.91H426Z" transform="translate(0 0)"/><path class="cls-3" d="M524.92,456.27c-17.66,0-37.2-6.36-52.75-18.61l12.72-19.31c13.42,10.13,28,15.31,40.74,15.31,12.25,0,19.31-5.18,19.31-13.43v-.47c0-9.65-13.18-12.95-27.78-17.42-18.37-5.19-38.86-12.72-38.86-36.51v-.47c0-23.55,19.54-37.91,44.27-37.91,15.54,0,32.5,5.41,45.69,14.13L557,361.83c-12-7.3-24.73-11.78-35.09-11.78-11.07,0-17.42,5.18-17.42,12.49V363c0,8.95,13.42,12.71,28,17.42,18.13,5.66,38.62,13.9,38.62,36.27v.47c0,26.14-20.25,39.1-46.16,39.1" transform="translate(0 0)"/><path class="cls-3" d="M622.66,415.05c0,11.07,5.65,15.55,15.3,15.55a38.4,38.4,0,0,0,17.67-4.24v23.31c-7.07,4-15.07,6.36-25.67,6.36-21,0-35.8-9.18-35.8-36.5V354.06H578.38v-24.5h15.78V295.42h28.5v34.14H656.1v24.5H622.66Z" transform="translate(0 0)"/><path class="cls-3" d="M675.88,283.41h30.61v27.08H675.88Zm1.17,46.15h28.5V453.91h-28.5Z" transform="translate(0 0)"/><polygon class="cls-3" points="849.67 453.91 816.7 453.91 779.26 400.22 761.83 418.35 761.83 453.91 733.34 453.91 733.34 281.99 761.83 281.99 761.83 384.67 813.41 329.56 848.03 329.56 798.57 380.2 849.67 453.91"/><path class="cls-3" d="M431.51,530.54H426V480.9h8.16c4.28,0,8.69.13,12.31,2.63a13.67,13.67,0,0,1,5.6,11.33,13.92,13.92,0,0,1-4.74,10.66c-3.36,2.77-7.64,3.29-11.79,3.29h-4Zm0-26.86h3.68c6.13,0,11.33-1.84,11.33-9,0-8.1-6.52-8.69-13-8.69h-2Z" transform="translate(0 0)"/><path class="cls-3" d="M484.7,530.54h-5.26v-4.28h-.13a13,13,0,0,1-10.67,5.14c-9.09,0-14.82-7.7-14.82-16.26,0-8.83,5.6-16.4,14.88-16.4A13.4,13.4,0,0,1,479.31,504h.13V499.6h5.26Zm-25.48-15.8c0,6.06,3.56,11.79,10.14,11.79,6.78,0,10.34-5.47,10.34-11.72s-3.89-11.2-10.41-11.2c-6.12,0-10.07,5.34-10.07,11.13" transform="translate(0 0)"/><path class="cls-3" d="M496.81,503H497c1.84-2.43,3.42-4.21,6.85-4.21a9.31,9.31,0,0,1,4.74,1.45L506,505c-1-.73-1.77-1.39-3.16-1.39-5.79,0-6.06,7.44-6.06,11.46v15.47h-5.26V499.6h5.26Z" transform="translate(0 0)"/><path class="cls-3" d="M539.48,547.93h-5.27V526.2h-.13a13.13,13.13,0,0,1-10.6,5.2c-9.29,0-14.88-7.44-14.88-16.2s5.66-16.46,14.81-16.46A13.13,13.13,0,0,1,534.08,504h.13V499.6h5.27ZM514,514.74c0,6.06,3.55,11.79,10.14,11.79,6.78,0,10.33-5.47,10.33-11.72s-3.88-11.2-10.4-11.2C518,503.61,514,509,514,514.74" transform="translate(0 0)"/><path class="cls-3" d="M551.46,516.85c0,5.2.59,9.68,7,9.68s7-4.48,7-9.68V499.6h5.27v17.84c0,8.23-3.09,14-12.25,14s-12.24-5.73-12.24-14V499.6h5.27Z" transform="translate(0 0)"/><path class="cls-3" d="M580.29,516.19c.07,5.73,4.15,10.34,10.14,10.34,4.48,0,7.37-2.7,9.42-6.39l4.47,2.57A15.61,15.61,0,0,1,590,531.4c-9.21,0-15.14-7-15.14-15.93,0-9.16,5.33-16.73,15-16.73,10,0,15.21,8.23,14.69,17.45Zm18.77-4.48a9.45,9.45,0,0,0-9.09-8.1,9.79,9.79,0,0,0-9.42,8.1Z" transform="translate(0 0)"/><rect class="cls-3" x="626.97" y="480.9" width="5.53" height="49.65"/><path class="cls-3" d="M645.2,503.35h.13a10.41,10.41,0,0,1,8.83-4.61c8.56,0,10.53,6.19,10.53,13.43v18.37h-5.27V513.1c0-5-.39-9.49-6.51-9.49-7.25,0-7.71,6.72-7.71,12.25v14.68h-5.26V499.6h5.26Z" transform="translate(0 0)"/><path class="cls-3" d="M695,526.26h-.13a13.19,13.19,0,0,1-10.67,5.14c-9.08,0-14.81-7.7-14.81-16.26,0-8.83,5.6-16.4,14.88-16.4a13.38,13.38,0,0,1,10.6,5.27H695V476.22h5.27v54.32H695Zm-20.21-11.52c0,6.06,3.55,11.79,10.14,11.79,6.78,0,10.34-5.47,10.34-11.72s-3.89-11.2-10.41-11.2c-6.12,0-10.07,5.34-10.07,11.13" transform="translate(0 0)"/><path class="cls-3" d="M712.29,516.85c0,5.2.59,9.68,7,9.68s7-4.48,7-9.68V499.6h5.27v17.84c0,8.23-3.1,14-12.25,14s-12.25-5.73-12.25-14V499.6h5.27Z" transform="translate(0 0)"/><path class="cls-3" d="M751,506.77a4.94,4.94,0,0,0-4.21-3.16A3.76,3.76,0,0,0,743,507c0,2.83,3.56,3.88,7.18,5.4s7.17,3.68,7.17,8.89c0,5.86-4.74,10.07-10.47,10.07a11.13,11.13,0,0,1-10.93-7.84l4.68-2c1.32,2.9,2.83,4.94,6.32,4.94a4.7,4.7,0,0,0,5-4.74c0-6.92-14-4.55-14-14.29,0-5.2,4.22-8.76,9.22-8.76a9.36,9.36,0,0,1,8.24,5.73Z" transform="translate(0 0)"/><polygon class="cls-3" points="767.65 530.54 762.39 530.54 762.39 504.47 759.16 504.47 759.16 499.6 762.39 499.6 762.39 488.47 767.65 488.47 767.65 499.6 773.19 499.6 773.19 504.47 767.65 504.47 767.65 530.54"/><path class="cls-3" d="M780.3,503h.13c1.84-2.43,3.42-4.21,6.85-4.21a9.31,9.31,0,0,1,4.74,1.45l-2.5,4.81c-1.06-.73-1.78-1.39-3.17-1.39-5.79,0-6.05,7.44-6.05,11.46v15.47H775V499.6h5.27Z" transform="translate(0 0)"/><path class="cls-3" d="M802.09,487.94a3.76,3.76,0,1,1-3.76-3.75,3.76,3.76,0,0,1,3.76,3.75M801,530.54H795.7V499.6H801Z" transform="translate(0 0)"/><path class="cls-3" d="M837.57,530.54h-5.26v-4.28h-.13a13,13,0,0,1-10.67,5.14c-9.09,0-14.82-7.7-14.82-16.26,0-8.83,5.6-16.4,14.88-16.4A13.4,13.4,0,0,1,832.18,504h.13V499.6h5.26Zm-25.48-15.8c0,6.06,3.56,11.79,10.14,11.79,6.78,0,10.34-5.47,10.34-11.72s-3.88-11.2-10.4-11.2c-6.13,0-10.08,5.34-10.08,11.13" transform="translate(0 0)"/><rect class="cls-3" x="844.55" y="476.22" width="5.27" height="54.32"/><polygon class="cls-4" points="488.34 112.25 498.36 122.26 376.09 244.53 423.88 244.53 423.88 244.36 545.97 122.26 423.88 0.17 423.88 0 376.09 0 488.34 112.25"/><polygon class="cls-5" points="484.31 123.74 363.62 244.43 363.46 244.28 332.05 212.87 422.69 122.23 422.57 122.23 332.05 31.71 363.46 0.3 363.62 0.14 485.69 122.22 484.31 123.74"/></g></g></g></g></svg>