<svg xmlns="http://www.w3.org/2000/svg" viewBox="0 0 903.68 547.93"><defs><style>.cls-1{fill:#fff;}.cls-2{fill:#0082ca;}.cls-3{fill:#f5333f;}</style></defs><title>logo_logistik_whitetxt</title><g id="Layer_2" data-name="Layer 2"><g id="Layer_1-2" data-name="Layer 1"><path class="cls-1" d="M1879.74,482.69A13.4,13.4,0,1,1,1893.13,496a13.27,13.27,0,0,1-13.39-13.33m24.74,0A11.35,11.35,0,1,0,1893.13,494a11.36,11.36,0,0,0,11.35-11.27m-5,7.21H1897l-4.37-6.73h-2.46v6.73h-2V475.31h6.35c2.63,0,5.19.72,5.19,3.86,0,2.87-2,3.93-4.61,4Zm-6.83-8.78c1.81,0,5,.34,5-2,0-1.51-2-1.78-3.55-1.78h-3.89v3.76Z" transform="translate(-1002.84 -158.88)"/><polygon class="cls-1" points="0 289.06 28.97 289.06 28.97 427.54 115.63 427.54 115.63 453.91 0 453.91 0 289.06"/><path class="cls-1" d="M1192.65,615.61c-37.91,0-65.94-29-65.94-64.52,0-35.8,28.26-65.24,66.42-65.24s66.17,29,66.17,64.77c0,35.56-28.26,65-66.65,65m0-104.79c-22.84,0-37.44,17.89-37.44,39.8,0,22.13,15.78,40.27,37.92,40.27,23.07,0,37.67-17.9,37.67-39.8,0-22.14-15.77-40.27-38.15-40.27" transform="translate(-1002.84 -158.88)"/><path class="cls-1" d="M1334.19,650.94c-20.49,0-39.57-5.18-55.58-14.84l10.6-21.43c13.18,8.24,27.32,13.19,44.27,13.19,25.43,0,39.33-13.19,39.33-38.15v-9.66c-10.36,13.43-23.31,22.85-43.8,22.85-29.2,0-56.52-21.43-56.52-58.41S1300,485.85,1329,485.85c21,0,33.91,9.66,43.57,21.2V488.44h28.49v98.91c0,44-24,63.59-66.88,63.59m2.35-141.07c-19.78,0-35.32,13.66-35.32,34.39s15.77,34.62,35.32,34.62c19.79,0,36.51-13.9,36.51-34.39,0-21-16.72-34.62-36.51-34.62" transform="translate(-1002.84 -158.88)"/><path class="cls-1" d="M1427.68,442.28h30.62v27.09h-30.62Zm1.18,46.16h28.49V612.79h-28.49Z" transform="translate(-1002.84 -158.88)"/><path class="cls-1" d="M1527.77,615.14a87.36,87.36,0,0,1-52.76-18.6l12.72-19.31c13.43,10.12,28,15.31,40.74,15.31,12.25,0,19.31-5.19,19.31-13.43v-.47c0-9.65-13.18-12.95-27.78-17.43-18.37-5.18-38.86-12.71-38.86-36.5v-.47c0-23.55,19.54-37.92,44.27-37.92,15.54,0,32.5,5.42,45.69,14.13l-11.3,20.26c-12-7.3-24.73-11.78-35.09-11.78-11.07,0-17.43,5.18-17.43,12.48v.47c0,9,13.42,12.72,28,17.43,18.14,5.65,38.63,13.9,38.63,36.27v.47c0,26.14-20.26,39.09-46.16,39.09" transform="translate(-1002.84 -158.88)"/><path class="cls-1" d="M1625.5,573.93c0,11.07,5.65,15.54,15.31,15.54a38.26,38.26,0,0,0,17.66-4.24v23.32c-7.07,4-15.07,6.36-25.67,6.36-21,0-35.8-9.19-35.8-36.5V512.93h-15.78V488.44H1597V454.29h28.5v34.15h33.44v24.49H1625.5Z" transform="translate(-1002.84 -158.88)"/><path class="cls-1" d="M1678.72,442.28h30.61v27.09h-30.61Zm1.18,46.16h28.49V612.79H1679.9Z" transform="translate(-1002.84 -158.88)"/><polygon class="cls-1" points="849.67 453.91 816.7 453.91 779.26 400.22 761.83 418.35 761.83 453.91 733.34 453.91 733.34 281.99 761.83 281.99 761.83 384.67 813.41 329.56 848.03 329.56 798.57 380.2 849.67 453.91"/><path class="cls-1" d="M1434.35,689.42h-5.53V639.77H1437c4.28,0,8.69.14,12.32,2.64a13.68,13.68,0,0,1,5.59,11.32,13.92,13.92,0,0,1-4.74,10.67c-3.36,2.77-7.64,3.29-11.78,3.29h-4Zm0-26.86H1438c6.12,0,11.32-1.85,11.32-9,0-8.1-6.52-8.69-13-8.69h-2Z" transform="translate(-1002.84 -158.88)"/><path class="cls-1" d="M1487.55,689.42h-5.27v-4.28h-.13a13,13,0,0,1-10.67,5.14c-9.09,0-14.82-7.71-14.82-16.27,0-8.82,5.6-16.39,14.88-16.39a13.37,13.37,0,0,1,10.61,5.27h.13v-4.42h5.27Zm-25.49-15.8c0,6.06,3.56,11.79,10.14,11.79,6.78,0,10.34-5.47,10.34-11.72s-3.88-11.2-10.4-11.2c-6.13,0-10.08,5.33-10.08,11.13" transform="translate(-1002.84 -158.88)"/><path class="cls-1" d="M1499.66,661.83h.13c1.84-2.43,3.42-4.21,6.85-4.21a9.28,9.28,0,0,1,4.74,1.45l-2.5,4.8c-1.06-.72-1.78-1.38-3.17-1.38-5.79,0-6,7.44-6,11.46v15.47h-5.27V658.47h5.27Z" transform="translate(-1002.84 -158.88)"/><path class="cls-1" d="M1542.32,706.81h-5.27V685.08h-.13a13.14,13.14,0,0,1-10.6,5.2c-9.28,0-14.88-7.44-14.88-16.2s5.66-16.46,14.81-16.46a13.12,13.12,0,0,1,10.67,5.27h.13v-4.42h5.27Zm-25.48-33.19c0,6.06,3.55,11.79,10.14,11.79,6.78,0,10.34-5.47,10.34-11.72s-3.89-11.2-10.41-11.2c-6.12,0-10.07,5.33-10.07,11.13" transform="translate(-1002.84 -158.88)"/><path class="cls-1" d="M1554.3,675.72c0,5.21.59,9.69,7,9.69s7-4.48,7-9.69V658.47h5.26v17.85c0,8.23-3.09,14-12.24,14s-12.25-5.73-12.25-14V658.47h5.27Z" transform="translate(-1002.84 -158.88)"/><path class="cls-1" d="M1583.13,675.07c.07,5.73,4.15,10.34,10.14,10.34,4.48,0,7.38-2.7,9.42-6.39l4.48,2.57a15.63,15.63,0,0,1-14.29,8.69c-9.22,0-15.15-7-15.15-15.94,0-9.15,5.34-16.72,15-16.72,9.94,0,15.21,8.23,14.68,17.45Zm18.77-4.48a9.45,9.45,0,0,0-9.09-8.1,9.78,9.78,0,0,0-9.41,8.1Z" transform="translate(-1002.84 -158.88)"/><rect class="cls-1" x="626.97" y="480.9" width="5.53" height="49.65"/><path class="cls-1" d="M1648,662.23h.14a10.36,10.36,0,0,1,8.82-4.61c8.56,0,10.54,6.19,10.54,13.43v18.37h-5.27V672c0-5-.4-9.48-6.52-9.48-7.25,0-7.71,6.72-7.71,12.25v14.68h-5.26V658.47H1648Z" transform="translate(-1002.84 -158.88)"/><path class="cls-1" d="M1697.89,685.14h-.13a13.21,13.21,0,0,1-10.67,5.14c-9.09,0-14.82-7.71-14.82-16.27,0-8.82,5.6-16.39,14.88-16.39a13.39,13.39,0,0,1,10.61,5.27h.13V635.1h5.26v54.32h-5.26Zm-20.22-11.52c0,6.06,3.56,11.79,10.14,11.79,6.78,0,10.34-5.47,10.34-11.72s-3.89-11.2-10.41-11.2c-6.12,0-10.07,5.33-10.07,11.13" transform="translate(-1002.84 -158.88)"/><path class="cls-1" d="M1715.13,675.72c0,5.21.6,9.69,7,9.69s7-4.48,7-9.69V658.47h5.27v17.85c0,8.23-3.09,14-12.25,14s-12.24-5.73-12.24-14V658.47h5.26Z" transform="translate(-1002.84 -158.88)"/><path class="cls-1" d="M1753.85,665.65a5,5,0,0,0-4.22-3.16c-1.84,0-3.82,1.45-3.82,3.42,0,2.84,3.56,3.89,7.18,5.41s7.17,3.68,7.17,8.88a10.13,10.13,0,0,1-10.46,10.08,11.12,11.12,0,0,1-10.93-7.84l4.67-2c1.32,2.89,2.83,4.94,6.32,4.94a4.72,4.72,0,0,0,5-4.75c0-6.91-14-4.54-14-14.28,0-5.21,4.21-8.76,9.22-8.76a9.36,9.36,0,0,1,8.23,5.73Z" transform="translate(-1002.84 -158.88)"/><polygon class="cls-1" points="767.65 530.54 762.39 530.54 762.39 504.47 759.16 504.47 759.16 499.6 762.39 499.6 762.39 488.47 767.65 488.47 767.65 499.6 773.19 499.6 773.19 504.47 767.65 504.47 767.65 530.54"/><path class="cls-1" d="M1783.14,661.83h.13c1.84-2.43,3.42-4.21,6.85-4.21a9.28,9.28,0,0,1,4.74,1.45l-2.5,4.8c-1.06-.72-1.78-1.38-3.17-1.38-5.79,0-6,7.44-6,11.46v15.47h-5.27V658.47h5.27Z" transform="translate(-1002.84 -158.88)"/><path class="cls-1" d="M1804.93,646.82a3.76,3.76,0,0,1-7.51,0,3.76,3.76,0,0,1,7.51,0m-1.12,42.6h-5.27V658.47h5.27Z" transform="translate(-1002.84 -158.88)"/><path class="cls-1" d="M1840.42,689.42h-5.27v-4.28H1835a13,13,0,0,1-10.67,5.14c-9.09,0-14.81-7.71-14.81-16.27,0-8.82,5.59-16.39,14.88-16.39a13.37,13.37,0,0,1,10.6,5.27h.13v-4.42h5.27Zm-25.49-15.8c0,6.06,3.56,11.79,10.15,11.79,6.78,0,10.33-5.47,10.33-11.72s-3.88-11.2-10.4-11.2c-6.12,0-10.08,5.33-10.08,11.13" transform="translate(-1002.84 -158.88)"/><rect class="cls-1" x="844.55" y="476.22" width="5.27" height="54.32"/><polygon class="cls-2" points="488.34 112.25 498.36 122.26 376.09 244.53 423.88 244.53 423.88 244.36 545.97 122.26 423.88 0.17 423.88 0 376.09 0 488.34 112.25"/><polygon class="cls-3" points="484.31 123.74 363.62 244.43 363.46 244.28 332.05 212.87 422.69 122.23 422.57 122.23 332.05 31.71 363.46 0.3 363.62 0.14 485.69 122.22 484.31 123.74"/></g></g></svg>